# xmcd CD database file
#
# Track frame offsets:
#	150
#	21438
#	35463
#	56681
#	83865
#	97308
#	114540
#	141424
#	156455
#	174669
#	191003
#	213646
#	226988
#	241120
#	262933
#	288252
#
# Disc length: 4128 seconds
#
# Revision: 0
# Processed by: cddbd v1.5.2PL0 Copyright (c) Steve Scherf et al.
# Submitted via: CDex 1.70beta2
#
DISCID=ec101e10
DTITLE=Various Artist - Kang and Music Sampler Vol.5
DYEAR=2005
DGENRE=Jazz
TTITLE0=1. And I Love Her - Luca Colombo - Playing the Beatles
TTITLE1=2. Nuovo Cinema Paradiso - Massimo Farao Trio - Ennio Morricone
TTITLE2=3. Your Song - Cheryl Porter - My Secret Love
TTITLE3=4. Smells Lile Teem Spirits - Jazz Breakers - Smells Like Jazz Spirits
TTITLE4=5. C'era Una Volta in America - Nino Rota Ensemble - Colonne Sonore
TTITLE5=6. Norwegian Wood - Rudy Rotta - The Beatles in Blues
TTITLE6=7. Adriana - Antonio Ferlito - First Step
TTITLE7=8. Buongiorno Principessa - Mikrokosmos Orchestra - La Vita e Bella
TTITLE8=9. The Mission(Gabriel's Oboe) - Massimo Farao - Ennio Morricone Country Themes
TTITLE9=10. Yin My Yang - Donovan - Beat Cafe
TTITLE10=11. I Have A Million Nightingales - Kim and Reggie Harris - Let My People Go!
TTITLE11=12. I Come and Stand At Every Door - Annie Hills - Where Have All the Flowers Gone
TTITLE12=13. You'll Sing To Me Too - Guardabarranco - If I Had a Song: The Songs Of Pete Seeger Vol.2
TTITLE13=14. Blue River - Danko, Fjeld, Anderson - One More Shot
TTITLE14=15. This Little Light Of Mine - Kim and Reggie Harris - Simplicity
TTITLE15=16. Still Looking For You - Eric Anderson - Beat Avenues
EXTD=YEAR: 2005
EXTT0=
EXTT1=
EXTT2=
EXTT3=
EXTT4=
EXTT5=
EXTT6=
EXTT7=
EXTT8=
EXTT9=
EXTT10=
EXTT11=
EXTT12=
EXTT13=
EXTT14=
EXTT15=
PLAYORDER=
